<svg width="16" height="16" viewBox="0 0 16 16" xmlns="http://www.w3.org/2000/svg">
  <path
    d="M5.45 3.8H4.75C4.1 3.8 3.55 4.35 3.55 5V12.95C3.55 13.6 4.1 14.15 4.75 14.15H11.25C11.9 14.15 12.45 13.6 12.45 12.95V5C12.45 4.35 11.9 3.8 11.25 3.8H10.55"
    fill="none"
    stroke="#000000"
    stroke-width="1.7"
    stroke-linecap="round"
    stroke-linejoin="round"
  />
  <path
    d="M6.45 2.25H9.55C10 2.25 10.35 2.6 10.35 3.05V3.85C10.35 4.3 10 4.65 9.55 4.65H6.45C6 4.65 5.65 4.3 5.65 3.85V3.05C5.65 2.6 6 2.25 6.45 2.25Z"
    fill="#000000"
  />
  <path
    d="M7.2 10.4L8.85 12.05L12.75 7.75"
    fill="none"
    stroke="#000000"
    stroke-width="1.8"
    stroke-linecap="round"
    stroke-linejoin="round"
  />
</svg>
